<?xml version="1.0" encoding="utf-8"?>
<!-- Generator: Adobe Illustrator 17.1.0, SVG Export Plug-In . SVG Version: 6.00 Build 0)  -->
<!DOCTYPE svg PUBLIC "-//W3C//DTD SVG 1.1//EN" "http://www.w3.org/Graphics/SVG/1.1/DTD/svg11.dtd">
<svg version="1.1" id="Layer_1" xmlns="http://www.w3.org/2000/svg" xmlns:xlink="http://www.w3.org/1999/xlink" x="0px" y="0px"
	 viewBox="0 0 200 200" style="enable-background:new 0 0 200 200;" xml:space="preserve">
<style type="text/css">
	.st0{fill:#111111;}
</style>
<path class="st0" d="M153.9,95.4c-1.3,0-2.4,0.2-3.4,0.6c-1,0.4-1.9,0.9-2.7,1.6c-0.8,0.6-1.4,1.4-1.9,2.2c-0.5,0.8-0.9,1.7-1.1,2.6
	h15c0.3-1.9-0.1-3.6-1.2-4.9C157.6,96,156,95.4,153.9,95.4z"/>
<path class="st0" d="M0,0v200h200V0H0z M52.2,97.2L48.3,125H36.9l3.9-27.8h-7.5l1.3-9.1h7.5l0.9-6.5c0.3-2,0.7-3.9,1.3-5.7
	c0.6-1.8,1.5-3.4,2.7-4.8s2.8-2.4,4.8-3.2c2-0.8,4.5-1.2,7.6-1.2c1.2,0,2.3,0.1,3.4,0.2c1.1,0.1,2.2,0.3,3.2,0.5L64.2,77
	c-0.6-0.3-1.2-0.4-1.7-0.6c-0.5-0.1-1.2-0.2-1.9-0.2c-1.8,0-3.2,0.4-4.3,1.2c-1,0.8-1.7,2.4-2.1,4.8l-0.8,5.9h8.4l-1.3,9.1H52.2z
	 M86.9,97.2c-2.2,0-4,0.3-5.3,0.9c-1.4,0.6-2.5,1.5-3.3,2.5c-0.8,1.1-1.4,2.4-1.9,3.9c-0.4,1.5-0.8,3.2-1,5L73.2,125H61.8L67,88.1
	h11.4L77.6,94h0.2c1.5-2.3,3.2-4,5-5.1c1.8-1.1,4-1.7,6.5-1.7c0.7,0,1.3,0,2,0.1c0.7,0.1,1.3,0.2,1.8,0.3l-1.4,10.4
	c-0.8-0.3-1.6-0.4-2.4-0.6C88.5,97.2,87.7,97.2,86.9,97.2z M129.4,106.5l-0.5,3.6h-26.4c0.2,2.2,0.9,3.9,2.2,5.2
	c1.3,1.3,3.1,1.9,5.4,1.9c1.9,0,3.5-0.4,4.9-1.3s2.7-1.9,3.8-3.2l7.1,5.9c-2.1,2.3-4.7,4.1-7.6,5.4c-3,1.3-5.9,1.9-8.9,1.9
	c-2.8,0-5.4-0.5-7.8-1.4c-2.4-0.9-4.4-2.2-6-3.9c-1.6-1.7-2.8-3.7-3.5-6.1c-0.7-2.4-0.9-5-0.5-8c0.4-2.9,1.3-5.6,2.7-8
	c1.4-2.4,3.1-4.4,5.2-6.1c2.1-1.7,4.4-3,7.1-3.9c2.6-0.9,5.4-1.4,8.2-1.4c2.6,0,5,0.5,7,1.4s3.7,2.2,4.9,3.9
	c1.3,1.7,2.1,3.7,2.6,6.1C129.8,100.9,129.8,103.6,129.4,106.5z M170.8,106.5l-0.5,3.6h-26.4c0.2,2.2,0.9,3.9,2.2,5.2
	c1.3,1.3,3.1,1.9,5.4,1.9c1.9,0,3.5-0.4,4.9-1.3s2.7-1.9,3.8-3.2l7.1,5.9c-2.1,2.3-4.7,4.1-7.6,5.4c-3,1.3-5.9,1.9-8.9,1.9
	c-2.8,0-5.4-0.5-7.8-1.4c-2.4-0.9-4.4-2.2-6-3.9c-1.6-1.7-2.8-3.7-3.5-6.1c-0.7-2.4-0.9-5-0.5-8c0.4-2.9,1.3-5.6,2.7-8
	c1.4-2.4,3.1-4.4,5.2-6.1c2.1-1.7,4.4-3,7.1-3.9c2.6-0.9,5.4-1.4,8.2-1.4c2.6,0,5,0.5,7,1.4s3.7,2.2,4.9,3.9
	c1.3,1.7,2.1,3.7,2.6,6.1C171.1,100.9,171.2,103.6,170.8,106.5z"/>
<path class="st0" d="M112.5,95.4c-1.3,0-2.4,0.2-3.4,0.6c-1,0.4-1.9,0.9-2.7,1.6c-0.8,0.6-1.4,1.4-1.9,2.2c-0.5,0.8-0.9,1.7-1.1,2.6
	h15c0.3-1.9-0.1-3.6-1.2-4.9C116.2,96,114.6,95.4,112.5,95.4z"/>
</svg>
