<?xml version="1.0" encoding="utf-8"?>
<!-- Generator: Adobe Illustrator 17.1.0, SVG Export Plug-In . SVG Version: 6.00 Build 0)  -->
<!DOCTYPE svg PUBLIC "-//W3C//DTD SVG 1.1//EN" "http://www.w3.org/Graphics/SVG/1.1/DTD/svg11.dtd">
<svg version="1.1" id="Layer_1" xmlns="http://www.w3.org/2000/svg" xmlns:xlink="http://www.w3.org/1999/xlink" x="0px" y="0px"
	 viewBox="0 0 200 200" style="enable-background:new 0 0 200 200;" xml:space="preserve">
<style type="text/css">
	.st0{fill:#111111;}
</style>
<path class="st0" d="M100,0C44.9,0,0,44.9,0,100s44.9,100,100,100s100-44.9,100-100S155.1,0,100,0z M93,81H80v-4.6
	c0-5.1-3.1-9.4-8-9.4c-6.5,0-8,4.4-8,10.5v46.2c0,5.2,2,9.3,7.9,9.3c3.6,0,8.1-2,8.1-9.1V120h13v5c0,11.2-9.1,20.9-20.6,20.9
	c-9.9,0-21.4-4.8-21.4-21.3V74.9c0-11.8,8.6-20.8,21.1-20.8c11.9,0,20.9,9,20.9,21.6V81z M149,81h-13v-4.6c0-5.1-3.1-9.4-8-9.4
	c-6.5,0-8,4.4-8,10.5v46.2c0,5.2,2,9.3,7.9,9.3c3.6,0,8.1-2,8.1-9.1V120h13v5c0,11.2-9.1,20.9-20.6,20.9c-9.9,0-21.4-4.8-21.4-21.3
	V74.9c0-11.8,8.6-20.8,21.1-20.8c11.9,0,20.9,9,20.9,21.6V81z"/>
</svg>
