<svg xmlns="http://www.w3.org/2000/svg" width="82.719" height="99.969" viewBox="0 0 82.719 99.969">
  <defs>
    <style>
      .cls-1 {
        fill: #191919;
        fill-rule: evenodd;
      }
    </style>
  </defs>
  <path class="cls-1" d="M483.916,592.521a3.438,3.438,0,0,0-1.289.23,3.707,3.707,0,0,0-1,.588,3.322,3.322,0,0,0-.716.831,3.259,3.259,0,0,0-.4.99h5.672a2.263,2.263,0,0,0-.458-1.864A2.193,2.193,0,0,0,483.916,592.521Zm15.583,0a3.442,3.442,0,0,0-1.289.23,3.686,3.686,0,0,0-1,.588,3.305,3.305,0,0,0-.717.831,3.259,3.259,0,0,0-.4.99h5.672a2.26,2.26,0,0,0-.458-1.864A2.192,2.192,0,0,0,499.5,592.521Zm9.76-28.945a41.4,41.4,0,1,0-58.516,58.579L480,651.445l29.258-29.29A41.453,41.453,0,0,0,509.259,563.576ZM461.171,593.21l-1.46,10.5h-4.3l1.461-10.5h-2.836l0.487-3.442h2.836l0.343-2.466a13.679,13.679,0,0,1,.5-2.165,4.985,4.985,0,0,1,1.017-1.792,4.671,4.671,0,0,1,1.82-1.219,7.955,7.955,0,0,1,2.878-.445q0.66,0,1.289.058a7.856,7.856,0,0,1,1.2.2l-0.717,3.641a4.338,4.338,0,0,0-.644-0.215,3.092,3.092,0,0,0-.7-0.071,2.565,2.565,0,0,0-1.6.444,2.772,2.772,0,0,0-.773,1.821l-0.316,2.208h3.18l-0.487,3.442h-3.18Zm13.063,0a4.958,4.958,0,0,0-2,.344,3.025,3.025,0,0,0-1.232.96,4.507,4.507,0,0,0-.7,1.477,14.218,14.218,0,0,0-.387,1.893l-0.8,5.821h-4.3l1.947-13.937h4.3l-0.315,2.237H470.8a6.437,6.437,0,0,1,1.891-1.936,4.549,4.549,0,0,1,2.464-.645q0.372,0,.744.029a3.63,3.63,0,0,1,.688.115l-0.544,3.928a6.8,6.8,0,0,0-.888-0.215A5.677,5.677,0,0,0,474.234,593.21Zm16.041,3.527-0.2,1.348h-9.969a2.9,2.9,0,0,0,.845,1.964,2.79,2.79,0,0,0,2.02.731,3.513,3.513,0,0,0,1.847-.473,6.142,6.142,0,0,0,1.447-1.219l2.693,2.208a8.208,8.208,0,0,1-2.879,2.036,8.5,8.5,0,0,1-3.366.717,8.182,8.182,0,0,1-2.951-.516,5.945,5.945,0,0,1-2.248-1.477,5.809,5.809,0,0,1-1.318-2.308,6.915,6.915,0,0,1-.186-3.011,8.057,8.057,0,0,1,1.017-3.011,8.465,8.465,0,0,1,1.962-2.309,8.662,8.662,0,0,1,2.664-1.477,9.384,9.384,0,0,1,3.094-.516,6.357,6.357,0,0,1,2.635.516,4.674,4.674,0,0,1,1.862,1.477,5.69,5.69,0,0,1,.988,2.309A8.983,8.983,0,0,1,490.275,596.737Zm15.584,0-0.2,1.348h-9.969a2.9,2.9,0,0,0,.845,1.964,2.79,2.79,0,0,0,2.02.731,3.513,3.513,0,0,0,1.847-.473,6.142,6.142,0,0,0,1.447-1.219l2.693,2.208a8.208,8.208,0,0,1-2.879,2.036,8.492,8.492,0,0,1-3.366.717,8.172,8.172,0,0,1-2.95-.516,5.941,5.941,0,0,1-2.249-1.477,5.809,5.809,0,0,1-1.318-2.308,6.93,6.93,0,0,1-.186-3.011,8.075,8.075,0,0,1,1.017-3.011,8.483,8.483,0,0,1,1.962-2.309,8.662,8.662,0,0,1,2.664-1.477,9.384,9.384,0,0,1,3.094-.516,6.357,6.357,0,0,1,2.635.516,4.674,4.674,0,0,1,1.862,1.477,5.705,5.705,0,0,1,.989,2.309A9.036,9.036,0,0,1,505.859,596.737Z" transform="translate(-438.656 -551.469)"/>
</svg>
