<svg xmlns="http://www.w3.org/2000/svg" width="60" height="60" viewBox="0 0 60 60">
  <defs>
    <style>
      .cls-1 {
        fill: #fff;
        fill-rule: evenodd;
      }
    </style>
  </defs>
  <path id="Ig" class="cls-1" d="M1660,777h0a15,15,0,0,0-24,0h0a15,15,0,1,0,24,0h0Zm-12,21a12,12,0,1,1,12-12A12,12,0,0,1,1648,798Zm18-12a18,18,0,1,1-33.59-9H1618v33a6,6,0,0,0,6,6h48a6,6,0,0,0,6-6V777h-14.41A17.931,17.931,0,0,1,1666,786Zm6-30h-33v12h-3V756h-3v12h-3V756h-3v12h-3V756a6,6,0,0,0-6,6v12h16.59a17.986,17.986,0,0,1,26.82,0H1678V762A6,6,0,0,0,1672,756Zm1.5,10.5a3,3,0,0,1-3,3h-3a3,3,0,0,1-3-3v-3a3,3,0,0,1,3-3h3a3,3,0,0,1,3,3v3Z" transform="translate(-1618 -756)"/>
</svg>
