<svg xmlns="http://www.w3.org/2000/svg" width="60" height="60" viewBox="0 0 60 60">
  <defs>
    <style>
      .cls-1 {
        fill: #fff;
        fill-rule: evenodd;
      }
    </style>
  </defs>
  <path id="Li" class="cls-1" d="M1875.56,756h-51.13a4.376,4.376,0,0,0-4.43,4.325v51.349a4.38,4.38,0,0,0,4.43,4.331h51.13a4.389,4.389,0,0,0,4.44-4.331V760.323A4.385,4.385,0,0,0,1875.56,756Zm-37.77,51.131h-8.9V778.494h8.9v28.635Zm-4.44-32.55a5.16,5.16,0,1,1,5.15-5.161A5.164,5.164,0,0,1,1833.35,774.579Zm37.78,32.55h-8.9V793.2c0-3.322-.06-7.594-4.62-7.594-4.63,0-5.34,3.618-5.34,7.353v14.166h-8.89V778.494h8.53v3.912h0.12a9.352,9.352,0,0,1,8.42-4.625c9.01,0,10.68,5.931,10.68,13.641v15.707Z" transform="translate(-1820 -756)"/>
</svg>
