<svg xmlns="http://www.w3.org/2000/svg" width="59.724" height="60" viewBox="0 0 60.72 61">
  <defs>
    <style>
      .cls-1 {
        fill: #fff;
        fill-rule: evenodd;
      }
    </style>
  </defs>
  <path id="Tw" class="cls-1" d="M1476.28,766.915a24.736,24.736,0,0,1-7.16,1.991,12.656,12.656,0,0,0,5.48-6.985,24.756,24.756,0,0,1-7.91,3.062A12.357,12.357,0,0,0,1457.6,761a12.544,12.544,0,0,0-12.46,12.624,12.961,12.961,0,0,0,.32,2.876,35.241,35.241,0,0,1-25.68-13.189,12.766,12.766,0,0,0,3.86,16.854,12.293,12.293,0,0,1-5.64-1.578,0.829,0.829,0,0,0-.01.159,12.6,12.6,0,0,0,10,12.378,12.427,12.427,0,0,1-3.28.443,12.241,12.241,0,0,1-2.35-.227A12.506,12.506,0,0,0,1434,800.1a24.895,24.895,0,0,1-18.44,5.226A34.907,34.907,0,0,0,1434.65,811c22.92,0,35.45-19.235,35.45-35.916,0-.547-0.02-1.094-0.04-1.636A25.517,25.517,0,0,0,1476.28,766.915Z" transform="translate(-1415.56 -755.5)"/>
</svg>
