<svg xmlns="http://www.w3.org/2000/svg" width="90.438" height="85" viewBox="0 0 90.438 85">
  <defs>
    <style>
      .cls-1 {
        fill: #dedad4;
        fill-rule: evenodd;
      }
    </style>
  </defs>
  <path id="Snap" class="cls-1" d="M958.648,3783.35c-12.3-2.03-17.827-14.65-18.057-15.18q-0.019-.045-0.042-0.09a4.009,4.009,0,0,1-.435-3.31c0.71-1.68,3.324-2.51,5.055-3.05,0.484-.16.939-0.3,1.313-0.45,3.066-1.21,4.6-2.7,4.571-4.42a3.677,3.677,0,0,0-2.754-3.16h0a5.1,5.1,0,0,0-1.886-.36,4.168,4.168,0,0,0-1.731.35,10.622,10.622,0,0,1-3.9,1.11,3.586,3.586,0,0,1-1.519-.38c0.035-.62.075-1.26,0.117-1.94l0.016-.26c0.387-6.14.869-13.79-1.139-18.29-5.968-13.38-18.639-14.42-22.38-14.42H915.65l-1.566.01c-3.73,0-16.374,1.04-22.339,14.42-2.007,4.5-1.526,12.14-1.14,18.28,0.046,0.72.094,1.47,0.135,2.2a3.623,3.623,0,0,1-1.759.38,10.076,10.076,0,0,1-4.159-1.11,3.448,3.448,0,0,0-1.434-.29c-1.845,0-4.052,1.21-4.4,3.02-0.247,1.31.336,3.21,4.525,4.86,0.377,0.15.832,0.29,1.312,0.45,1.73,0.54,4.346,1.37,5.056,3.05a4.013,4.013,0,0,1-.435,3.31q-0.023.045-.042,0.09c-0.23.54-5.766,13.16-18.057,15.18a1.883,1.883,0,0,0-1.568,1.96,2.572,2.572,0,0,0,.2.84c0.922,2.15,4.814,3.73,11.9,4.83a8.92,8.92,0,0,1,.634,2.14c0.148,0.68.3,1.39,0.518,2.13a2.1,2.1,0,0,0,2.2,1.59,11.759,11.759,0,0,0,2.042-.28,23.888,23.888,0,0,1,4.82-.55,21.675,21.675,0,0,1,3.456.29c2.286,0.38,4.229,1.75,6.478,3.35,3.221,2.27,6.869,4.85,12.415,4.85,0.152,0,.3,0,0.456-0.01,0.181,0,.414.01,0.663,0.01,5.546,0,9.194-2.58,12.413-4.85,2.254-1.6,4.2-2.97,6.481-3.35a21.653,21.653,0,0,1,3.455-.29,23.764,23.764,0,0,1,4.821.51,11.011,11.011,0,0,0,2.042.25h0.1a2.033,2.033,0,0,0,2.091-1.56c0.213-.73.366-1.41,0.518-2.1a8.563,8.563,0,0,1,.631-2.13c7.087-1.1,10.978-2.68,11.9-4.83a2.494,2.494,0,0,0,.2-0.85A1.872,1.872,0,0,0,958.648,3783.35Z" transform="translate(-869.781 -3719.5)"/>
</svg>
