<svg xmlns="http://www.w3.org/2000/svg" width="80" height="80" viewBox="0 0 80 80">
  <defs>
    <style>
      .cls-1 {
        fill: #dedad4;
        fill-rule: evenodd;
      }
    </style>
  </defs>
  <path id="Ig" class="cls-1" d="M558,3749h0a20,20,0,0,0-32,0h0a20,20,0,1,0,32,0h0Zm-16,28a16,16,0,1,1,16-16A16,16,0,0,1,542,3777Zm24-16a24,24,0,1,1-44.781-12H502v44a8,8,0,0,0,8,8h64a8,8,0,0,0,8-8v-44H562.782A23.889,23.889,0,0,1,566,3761Zm8-40H530v16h-4v-16h-4v16h-4v-16h-4v16h-4v-16a8,8,0,0,0-8,8v16h22.117a23.99,23.99,0,0,1,35.768,0H582v-16A8,8,0,0,0,574,3721Zm2,14a4,4,0,0,1-4,4h-4a4,4,0,0,1-4-4v-4a4,4,0,0,1,4-4h4a4,4,0,0,1,4,4v4Z" transform="translate(-502 -3721)"/>
</svg>
