<svg xmlns="http://www.w3.org/2000/svg" width="99.312" height="70" viewBox="0 0 99.312 70">
  <defs>
    <style>
      .cls-1 {
        fill: #dedad4;
        fill-rule: evenodd;
      }
    </style>
  </defs>
  <path id="Yt_copy" data-name="Yt copy" class="cls-1" d="M728.522,3727.01h-0.044s-20.846,0-34.743,1.01c-1.941.23-6.173,0.25-9.951,4.21-2.978,3.02-3.946,9.88-3.946,9.88a150.716,150.716,0,0,0-.993,16.1v7.55a150.716,150.716,0,0,0,.993,16.1s0.968,6.85,3.946,9.87c3.778,3.97,8.74,3.84,10.951,4.26,7.945,0.76,33.765,1,33.765,1h0s20.868-.04,34.765-1.04c1.941-.23,6.175-0.25,9.951-4.22,2.977-3.02,3.948-9.87,3.948-9.87a151.015,151.015,0,0,0,.991-16.1v-7.55a151.015,151.015,0,0,0-.991-16.1s-0.971-6.86-3.948-9.88c-3.776-3.96-8.01-3.98-9.951-4.21-13.9-1.01-34.743-1.01-34.743-1.01m-10.275,47.89,26.83-13.92-26.834-14.03Z" transform="translate(-678.844 -3727)"/>
</svg>
