<svg xmlns="http://www.w3.org/2000/svg" width="90" height="90" viewBox="0 0 90 90">
  <defs>
    <style>
      .cls-1 {
        fill: #dedad4;
        fill-rule: evenodd;
      }
    </style>
  </defs>
  <path id="TCC_Logo_copy" data-name="TCC Logo copy" class="cls-1" d="M355,3717a45,45,0,1,0,45,45A45.054,45.054,0,0,0,355,3717Zm-3.15,36.45H346v-2.07c0-2.28-1.374-4.23-3.6-4.23-2.913,0-3.6,2-3.6,4.74v20.79c0,2.34.917,4.17,3.544,4.17,1.6,0,3.657-.92,3.657-4.12V3771h5.85v2.25a9.421,9.421,0,0,1-9.279,9.42c-4.454,0-9.622-2.17-9.622-9.59v-22.39a9.108,9.108,0,0,1,9.508-9.36c5.367,0,9.393,4.05,9.393,9.71v2.41Zm25.2,0H371.2v-2.07c0-2.28-1.374-4.23-3.6-4.23-2.912,0-3.6,2-3.6,4.74v20.79c0,2.34.917,4.17,3.543,4.17,1.6,0,3.658-.92,3.658-4.12V3771h5.85v2.25a9.421,9.421,0,0,1-9.279,9.42c-4.454,0-9.622-2.17-9.622-9.59v-22.39a9.108,9.108,0,0,1,9.508-9.36c5.367,0,9.393,4.05,9.393,9.71v2.41Z" transform="translate(-310 -3717)"/>
</svg>
